<svg width="80" height="80" viewBox="0 0 80 80" fill="none" xmlns="http://www.w3.org/2000/svg">
  <defs>
    <linearGradient id="skyGradient" x1="0%" y1="0%" x2="100%" y2="100%">
      <stop offset="0%" style="stop-color:#3b82f6;stop-opacity:1" />
      <stop offset="100%" style="stop-color:#1e40af;stop-opacity:1" />
    </linearGradient>
    <linearGradient id="buildingGradient" x1="0%" y1="0%" x2="100%" y2="100%">
      <stop offset="0%" style="stop-color:#f8fafc;stop-opacity:1" />
      <stop offset="50%" style="stop-color:#e2e8f0;stop-opacity:1" />
      <stop offset="100%" style="stop-color:#cbd5e1;stop-opacity:1" />
    </linearGradient>
    <linearGradient id="orangeGradient" x1="0%" y1="0%" x2="100%" y2="100%">
      <stop offset="0%" style="stop-color:#ffa500;stop-opacity:1" />
      <stop offset="100%" style="stop-color:#ff8c00;stop-opacity:1" />
    </linearGradient>
    <linearGradient id="darkGrayGradient" x1="0%" y1="0%" x2="100%" y2="100%">
      <stop offset="0%" style="stop-color:#475569;stop-opacity:1" />
      <stop offset="100%" style="stop-color:#334155;stop-opacity:1" />
    </linearGradient>
    <linearGradient id="glassGradient" x1="0%" y1="0%" x2="100%" y2="100%">
      <stop offset="0%" style="stop-color:#87ceeb;stop-opacity:0.8" />
      <stop offset="100%" style="stop-color:#4682b4;stop-opacity:0.9" />
    </linearGradient>
  </defs>
  
  <!-- Sky Background -->
  <rect width="80" height="80" rx="20" fill="url(#skyGradient)"/>
  
  <!-- Clouds -->
  <circle cx="15" cy="20" r="4" fill="white" opacity="0.8"/>
  <circle cx="65" cy="15" r="3" fill="white" opacity="0.6"/>
  <circle cx="70" cy="25" r="5" fill="white" opacity="0.7"/>
  
  <!-- Building Shadow -->
  <ellipse cx="40" cy="70" rx="25" ry="8" fill="rgba(0,0,0,0.2)"/>
  
  <!-- Main Building Structure -->
  <rect x="20" y="25" width="40" height="50" rx="2" fill="url(#buildingGradient)"/>
  
  <!-- Left Building Section (Darker) -->
  <rect x="20" y="30" width="12" height="45" rx="1" fill="url(#darkGrayGradient)"/>
  
  <!-- Right Building Section (Stepped) -->
  <rect x="52" y="35" width="8" height="40" rx="1" fill="url(#darkGrayGradient)"/>
  
  <!-- Orange Window Frames and Balconies -->
  <!-- Floor 1 -->
  <rect x="22" y="32" width="8" height="8" rx="1" fill="url(#orangeGradient)"/>
  <rect x="32" y="32" width="8" height="8" rx="1" fill="url(#orangeGradient)"/>
  <rect x="42" y="32" width="8" height="8" rx="1" fill="url(#orangeGradient)"/>
  
  <!-- Floor 2 -->
  <rect x="22" y="42" width="8" height="8" rx="1" fill="url(#orangeGradient)"/>
  <rect x="32" y="42" width="8" height="8" rx="1" fill="url(#orangeGradient)"/>
  <rect x="42" y="42" width="8" height="8" rx="1" fill="url(#orangeGradient)"/>
  
  <!-- Floor 3 -->
  <rect x="22" y="52" width="8" height="8" rx="1" fill="url(#orangeGradient)"/>
  <rect x="32" y="52" width="8" height="8" rx="1" fill="url(#orangeGradient)"/>
  <rect x="42" y="52" width="8" height="8" rx="1" fill="url(#orangeGradient)"/>
  
  <!-- Floor 4 -->
  <rect x="22" y="62" width="8" height="8" rx="1" fill="url(#orangeGradient)"/>
  <rect x="32" y="62" width="8" height="8" rx="1" fill="url(#orangeGradient)"/>
  <rect x="42" y="62" width="8" height="8" rx="1" fill="url(#orangeGradient)"/>
  
  <!-- Glass Windows -->
  <rect x="24" y="34" width="4" height="4" rx="0.5" fill="url(#glassGradient)"/>
  <rect x="34" y="34" width="4" height="4" rx="0.5" fill="url(#glassGradient)"/>
  <rect x="44" y="34" width="4" height="4" rx="0.5" fill="url(#glassGradient)"/>
  
  <rect x="24" y="44" width="4" height="4" rx="0.5" fill="url(#glassGradient)"/>
  <rect x="34" y="44" width="4" height="4" rx="0.5" fill="url(#glassGradient)"/>
  <rect x="44" y="44" width="4" height="4" rx="0.5" fill="url(#glassGradient)"/>
  
  <rect x="24" y="54" width="4" height="4" rx="0.5" fill="url(#glassGradient)"/>
  <rect x="34" y="54" width="4" height="4" rx="0.5" fill="url(#glassGradient)"/>
  <rect x="44" y="54" width="4" height="4" rx="0.5" fill="url(#glassGradient)"/>
  
  <rect x="24" y="64" width="4" height="4" rx="0.5" fill="url(#glassGradient)"/>
  <rect x="34" y="64" width="4" height="4" rx="0.5" fill="url(#glassGradient)"/>
  <rect x="44" y="64" width="4" height="4" rx="0.5" fill="url(#glassGradient)"/>
  
  <!-- Balconies -->
  <rect x="22" y="40" width="8" height="2" rx="1" fill="url(#orangeGradient)"/>
  <rect x="32" y="40" width="8" height="2" rx="1" fill="url(#orangeGradient)"/>
  <rect x="42" y="40" width="8" height="2" rx="1" fill="url(#orangeGradient)"/>
  
  <rect x="22" y="50" width="8" height="2" rx="1" fill="url(#orangeGradient)"/>
  <rect x="32" y="50" width="8" height="2" rx="1" fill="url(#orangeGradient)"/>
  <rect x="42" y="50" width="8" height="2" rx="1" fill="url(#orangeGradient)"/>
  
  <rect x="22" y="60" width="8" height="2" rx="1" fill="url(#orangeGradient)"/>
  <rect x="32" y="60" width="8" height="2" rx="1" fill="url(#orangeGradient)"/>
  <rect x="42" y="60" width="8" height="2" rx="1" fill="url(#orangeGradient)"/>
  
  <!-- Main Entrance -->
  <rect x="32" y="68" width="16" height="7" rx="2" fill="url(#darkGrayGradient)"/>
  
  <!-- Window Reflections -->
  <rect x="25" y="35" width="2" height="2" rx="0.5" fill="white" opacity="0.4"/>
  <rect x="35" y="45" width="2" height="2" rx="0.5" fill="white" opacity="0.3"/>
  <rect x="45" y="55" width="2" height="2" rx="0.5" fill="white" opacity="0.5"/>
  
  <!-- Animated Window Glow -->
  <rect x="34" y="44" width="4" height="4" rx="0.5" fill="white" opacity="0.3">
    <animate attributeName="opacity" values="0.3;0.8;0.3" dur="3s" repeatCount="indefinite"/>
  </rect>
  <rect x="34" y="54" width="4" height="4" rx="0.5" fill="white" opacity="0.2">
    <animate attributeName="opacity" values="0.2;0.6;0.2" dur="4s" repeatCount="indefinite"/>
  </rect>
</svg>
