<svg width="80" height="80" viewBox="0 0 80 80" fill="none" xmlns="http://www.w3.org/2000/svg">
  <defs>
    <linearGradient id="skyGradient" x1="0%" y1="0%" x2="100%" y2="100%">
      <stop offset="0%" style="stop-color:#e0f2fe;stop-opacity:1" />
      <stop offset="100%" style="stop-color:#b3e5fc;stop-opacity:1" />
    </linearGradient>
    <linearGradient id="buildingGradient" x1="0%" y1="0%" x2="100%" y2="100%">
      <stop offset="0%" style="stop-color:#667eea;stop-opacity:1" />
      <stop offset="50%" style="stop-color:#764ba2;stop-opacity:1" />
      <stop offset="100%" style="stop-color:#f093fb;stop-opacity:1" />
    </linearGradient>
    <linearGradient id="glassGradient" x1="0%" y1="0%" x2="100%" y2="100%">
      <stop offset="0%" style="stop-color:#3b82f6;stop-opacity:0.8" />
      <stop offset="100%" style="stop-color:#1d4ed8;stop-opacity:0.9" />
    </linearGradient>
    <linearGradient id="shadowGradient" x1="0%" y1="0%" x2="100%" y2="100%">
      <stop offset="0%" style="stop-color:#000000;stop-opacity:0.1" />
      <stop offset="100%" style="stop-color:#000000;stop-opacity:0.4" />
    </linearGradient>
    <filter id="glow">
      <feGaussianBlur stdDeviation="2" result="coloredBlur"/>
      <feMerge> 
        <feMergeNode in="coloredBlur"/>
        <feMergeNode in="SourceGraphic"/>
      </feMerge>
    </filter>
  </defs>
  
  <!-- Fond du ciel -->
  <rect width="80" height="80" rx="20" fill="url(#skyGradient)"/>
  
  <!-- Ombre du bâtiment -->
  <ellipse cx="40" cy="70" rx="25" ry="8" fill="url(#shadowGradient)"/>
  
  <!-- Bâtiment principal (tour moderne) -->
  <rect x="25" y="20" width="30" height="45" rx="2" fill="url(#buildingGradient)"/>
  
  <!-- Bâtiment secondaire (plus bas) -->
  <rect x="15" y="35" width="20" height="30" rx="2" fill="url(#buildingGradient)" opacity="0.8"/>
  
  <!-- Bâtiment tertiaire (encore plus bas) -->
  <rect x="45" y="40" width="20" height="25" rx="2" fill="url(#buildingGradient)" opacity="0.7"/>
  
  <!-- Toits des bâtiments -->
  <polygon points="25,20 40,10 55,20" fill="white" opacity="0.9"/>
  <polygon points="15,35 25,28 35,35" fill="white" opacity="0.8"/>
  <polygon points="45,40 55,35 65,40" fill="white" opacity="0.7"/>
  
  <!-- Fenêtres du bâtiment principal -->
  <!-- Étage 1 -->
  <rect x="28" y="25" width="4" height="6" rx="1" fill="url(#glassGradient)"/>
  <rect x="35" y="25" width="4" height="6" rx="1" fill="url(#glassGradient)"/>
  <rect x="42" y="25" width="4" height="6" rx="1" fill="url(#glassGradient)"/>
  
  <!-- Étage 2 -->
  <rect x="28" y="35" width="4" height="6" rx="1" fill="url(#glassGradient)"/>
  <rect x="35" y="35" width="4" height="6" rx="1" fill="url(#glassGradient)"/>
  <rect x="42" y="35" width="4" height="6" rx="1" fill="url(#glassGradient)"/>
  
  <!-- Étage 3 -->
  <rect x="28" y="45" width="4" height="6" rx="1" fill="url(#glassGradient)"/>
  <rect x="35" y="45" width="4" height="6" rx="1" fill="url(#glassGradient)"/>
  <rect x="42" y="45" width="4" height="6" rx="1" fill="url(#glassGradient)"/>
  
  <!-- Étage 4 -->
  <rect x="28" y="55" width="4" height="6" rx="1" fill="url(#glassGradient)"/>
  <rect x="35" y="55" width="4" height="6" rx="1" fill="url(#glassGradient)"/>
  <rect x="42" y="55" width="4" height="6" rx="1" fill="url(#glassGradient)"/>
  
  <!-- Fenêtres du bâtiment secondaire -->
  <rect x="18" y="40" width="3" height="4" rx="1" fill="url(#glassGradient)" opacity="0.8"/>
  <rect x="24" y="40" width="3" height="4" rx="1" fill="url(#glassGradient)" opacity="0.8"/>
  <rect x="18" y="48" width="3" height="4" rx="1" fill="url(#glassGradient)" opacity="0.8"/>
  <rect x="24" y="48" width="3" height="4" rx="1" fill="url(#glassGradient)" opacity="0.8"/>
  
  <!-- Fenêtres du bâtiment tertiaire -->
  <rect x="48" y="45" width="3" height="4" rx="1" fill="url(#glassGradient)" opacity="0.7"/>
  <rect x="54" y="45" width="3" height="4" rx="1" fill="url(#glassGradient)" opacity="0.7"/>
  <rect x="48" y="53" width="3" height="4" rx="1" fill="url(#glassGradient)" opacity="0.7"/>
  <rect x="54" y="53" width="3" height="4" rx="1" fill="url(#glassGradient)" opacity="0.7"/>
  
  <!-- Porte d'entrée principale -->
  <rect x="35" y="60" width="10" height="5" rx="2" fill="white" opacity="0.9"/>
  
  <!-- Effet de brillance sur les fenêtres -->
  <rect x="28" y="25" width="18" height="36" rx="1" fill="none" stroke="white" stroke-width="0.5" opacity="0.3"/>
  
  <!-- Animation de scintillement des fenêtres -->
  <rect x="35" y="25" width="4" height="6" rx="1" fill="white" opacity="0.6">
    <animate attributeName="opacity" values="0.6;0.2;0.6" dur="2s" repeatCount="indefinite"/>
  </rect>
  <rect x="35" y="35" width="4" height="6" rx="1" fill="white" opacity="0.4">
    <animate attributeName="opacity" values="0.4;0.1;0.4" dur="2.5s" repeatCount="indefinite"/>
  </rect>
  <rect x="35" y="45" width="4" height="6" rx="1" fill="white" opacity="0.5">
    <animate attributeName="opacity" values="0.5;0.2;0.5" dur="3s" repeatCount="indefinite"/>
  </rect>
  
  <!-- Effet de glow -->
  <rect x="25" y="20" width="30" height="45" rx="2" fill="none" stroke="url(#buildingGradient)" stroke-width="1" opacity="0.5" filter="url(#glow)"/>
</svg>
